<?xml version="1.0" encoding="utf-8"?>
<!-- Generator: Adobe Illustrator 21.0.0, SVG Export Plug-In . SVG Version: 6.00 Build 0)  -->
<!DOCTYPE svg PUBLIC "-//W3C//DTD SVG 1.1//EN" "http://www.w3.org/Graphics/SVG/1.1/DTD/svg11.dtd">
<svg version="1.1" xmlns="http://www.w3.org/2000/svg" xmlns:xlink="http://www.w3.org/1999/xlink" x="0px" y="0px"
	 viewBox="0 0 3033.6 852" style="enable-background:new 0 0 3033.6 852;" xml:space="preserve">
<style type="text/css">
	.st0{fill:#212121;}
	.st1{fill:url(#SVGID_1_);}
	.st2{fill:#FFFFFF;}
</style>
<g id="Layer_1">
	<g>
		<g>
			<path class="st0" d="M935.2,257h149.6v483.5h155.7V257h149.6V111.4H935.2V257z M1455.2,740.6h155.7V111.4h-155.7V740.6z
				 M1841.1,490.7h237V356.8h-237V253.4H2104v-142h-416.9v629.1h420.3v-142h-266.4V490.7z M2416.5,355.9c-77-29.7-96-44-96-71.9
				v-0.9c0-23.4,19.9-41.3,55.4-41.3c49.3,0,99.5,24.3,141,57.5l78.7-120.4c-63.1-53-134.9-76.4-216.2-76.4
				c-132.3,0-216.2,80-216.2,194.1v2.7c0,114.1,80.4,157.3,194.6,197.7c70.9,26.1,89.1,41.3,89.1,66.5v0.9c0,27-21.6,45.8-63.1,45.8
				c-58.8,0-115-28.8-164.3-71l-83,117.7c70.9,63.8,156.5,92.6,246.5,92.6c129.7,0,220.5-75.5,220.5-197.7V550
				C2603.3,443.1,2531.5,394.5,2416.5,355.9z"/>
		</g>
	</g>
</g>
<g id="Layer_3">
	<path class="st0" d="M2573.4,722.4v0.4c0,9.1,7.2,16.2,17,16.2c9.8,0,17-7,17-16.2v-0.4c0-9.1-7.2-16.2-17-16.2
		C2580.7,706.2,2573.4,713.2,2573.4,722.4z"/>
	<path class="st0" d="M2677.1,740.1c17.2,0,28.3-5.3,37.1-13.1c2.5-2.3,4.3-5.3,4.3-9.1c0-6.9-5.5-12.4-12.5-12.4
		c-3.5,0-6.4,1.5-8,2.7c-5.7,4.4-11.7,7-19.5,7c-16.2,0-26.6-12.6-26.6-28.2v-0.4c0-15,10.5-27.8,25.4-27.8c7.8,0,13.3,2.5,18.5,6.5
		c1.8,1.3,4.7,2.9,8.6,2.9c7.4,0,13.5-5.7,13.5-13c0-5-2.7-8.4-4.7-9.9c-8.8-7.2-19.9-11.4-35.7-11.4c-32,0-54.9,24-54.9,53.1v0.4
		C2622.6,716.5,2645.7,740.1,2677.1,740.1z"/>
	<path class="st0" d="M2787.6,740.1c32.6,0,56.8-23.8,56.8-53.1v-0.4c0-29.3-24-52.8-56.4-52.8c-32.6,0-56.8,23.8-56.8,53.1v0.4
		C2731.2,716.7,2755.2,740.1,2787.6,740.1z M2788,715.1c-16.4,0-27.5-13.1-27.5-28.2v-0.4c0-15,10.2-27.8,27.1-27.8
		c16.4,0,27.5,13.1,27.5,28.2v0.4C2815.1,702.4,2805,715.1,2788,715.1z"/>
	<path class="st0" d="M2865.9,724.5c0,8,6.6,14.5,14.8,14.5s14.8-6.5,14.8-14.5v-43.6c0-13.7,6.8-20.8,18-20.8s17.4,7,17.4,20.8
		v43.6c0,8,6.6,14.5,14.8,14.5s14.8-6.5,14.8-14.5v-43.6c0-13.7,6.8-20.8,18-20.8c11.1,0,17.4,7,17.4,20.8v43.6
		c0,8,6.6,14.5,14.8,14.5s14.8-6.5,14.8-14.5v-53.1c0-24.6-13.3-37.5-35.3-37.5c-14.3,0-25.2,5.7-34.4,16.2
		c-5.5-10.3-15.8-16.2-29.5-16.2c-15,0-24,7.8-30.8,16.4V649c0-8-6.6-14.5-14.8-14.5s-14.8,6.5-14.8,14.5V724.5z"/>
</g>
<g id="Layer_2">
	<linearGradient id="SVGID_1_" gradientUnits="userSpaceOnUse" x1="420.2294" y1="846.731" x2="420.2294" y2="5.2602">
		<stop  offset="0" style="stop-color:#BC2026"/>
		<stop  offset="1" style="stop-color:#D52039"/>
	</linearGradient>
	<path class="st1" d="M708.3,713.8c-34.2,8.9-59.7,28.9-76.4,60c-16.7,31.2-42.4,43.3-77,36.4c-34.7-6.9-66.3,0.1-94.8,21
		c-28.6,20.8-57,20.6-85.2-0.6c-28.3-21.2-59.8-28.7-94.5-22.3c-34.8,6.4-60.3-6.1-76.5-37.5c-16.3-31.4-41.4-51.8-75.5-61.1
		s-51.7-31.7-52.7-67c-1-35.3-14.9-64.6-41.5-87.8C7.3,531.8,1.2,504,15.6,471.7c14.4-32.3,14.6-64.7,0.7-97.1
		c-14-32.5-7.4-60.1,19.5-83c27-22.8,41.2-51.9,42.8-87.2c1.5-35.3,19.4-57.4,53.6-66.3c34.2-8.9,59.7-28.9,76.4-60
		c16.7-31.2,42.4-43.3,77-36.4c34.7,6.9,66.3-0.1,94.8-21c28.6-20.8,57-20.6,85.2,0.6c28.3,21.2,59.8,28.7,94.5,22.3
		c34.8-6.4,60.3,6.1,76.5,37.5c16.3,31.4,41.4,51.8,75.5,61.1s51.7,31.7,52.7,67c1,35.3,14.9,64.6,41.5,87.8
		c26.7,23.2,32.8,50.9,18.4,83.2c-14.4,32.3-14.6,64.7-0.7,97.1s7.4,60.1-19.5,83c-27,22.8-41.2,51.9-42.8,87.2
		C760.4,682.9,742.5,705,708.3,713.8z"/>
	<g>
		<path class="st2" d="M382.2,739.4c0,0-8-23.7-39.8-65.8c-31.1-41.2-56.9-49.9-56.9-49.9c84.9-121,103.1-234.6,118.9-370.3
			c2.3-19.9,9.5-28.8,20.8-29.4c6-0.3,18.5,5.9,24.2,26.2c35.9,126.6,46,256.9,53.5,334.2c2.9,29.7,4.3,49.8,4.3,55.3
			C507.3,639.7,482.9,700.7,382.2,739.4z"/>
		<path class="st2" d="M425.9,202.6c-12,0-19.1,0.4-32.1-12.5s-30.2-35.2-33.4-44.5c-3.1-9.3-2.7-22.7,9.6-26
			c17.6-4.7,72.2-12.1,90.1-12.1c9.4,0,14.9,7.7,15.7,13.8c1.3,10.4-12.7,54.9-21.7,67C445.1,200.4,437.8,202.6,425.9,202.6z"/>
	</g>
</g>
</svg>
